<svg width="142" height="142" xmlns="http://www.w3.org/2000/svg"><defs><radialGradient cy="0%" fx="50%" fy="0%" r="100%" id="a"><stop stop-color="#20C6B7" offset="0%"/><stop stop-color="#4D9ABF" offset="100%"/></radialGradient></defs><path d="M99.985 50.22a6.01 6.01 0 0 1 1.81 1.373c.06.06.06.06.12.06h.06l13.87-5.912c.06-.06.12-.12.12-.18 0-.059 0-.119-.06-.178L102.94 32.544c-.06-.06-.12-.06-.12-.06h-.061c-.06 0-.12.06-.12.18L99.803 50.04c.06.06.12.18.181.18zM71.22 38.575a7.714 7.714 0 0 1 1.206 3.404c0 .06.06.12.12.18l20.625 8.777h.06c.06 0 .12 0 .12-.06.604-.477 1.327-.836 2.111-1.074.06 0 .12-.06.12-.18l3.378-20.96c0-.059 0-.119-.06-.178L85.993 15.645c-.06-.06-.06-.06-.12-.06s-.12.06-.12.12L71.22 38.277c-.06.12-.06.239 0 .298zm70.435 32.306l-22.131-21.975c-.06-.06-.121-.06-.121-.06h-.06l-15.016 6.39c-.06.06-.12.119-.12.179s.06.179.12.179l37.027 15.705h.06c.06 0 .12 0 .12-.06l.121-.12c.121 0 .121-.179 0-.238zm-3.678 3.582l-35.52-15.048h-.06c-.06 0-.12 0-.18.06-.966 1.314-2.413 2.15-4.101 2.389-.06 0-.181.06-.181.179l-3.8 23.348c0 .06 0 .12.06.18 1.327 1.014 2.111 2.507 2.292 4.18 0 .119.06.178.181.178l21.469 4.479h.06c.06 0 .12 0 .12-.06l19.66-19.526c.06-.06.06-.12.06-.18s0-.119-.06-.179zM90.939 54.52l-19.418-8.24h-.06c-.06 0-.12.06-.181.119a7.098 7.098 0 0 1-5.97 3.224c-.362 0-.724-.06-1.146-.12h-.06c-.06 0-.12.06-.181.12l-15.98 24.782a.18.18 0 0 0 0 .239c.06.06.12.06.18.06h.06L90.82 56.488c.06-.06.12-.119.12-.179V55.773c0-.358.06-.717.12-1.015 0-.12-.06-.18-.12-.24zm23.398 43.352L95.462 93.99h-.06c-.06 0-.12.06-.181.06-.724.895-1.628 1.612-2.714 2.03-.06 0-.12.12-.12.179l-4.523 27.827c0 .12.06.179.12.239h.121c.06 0 .12 0 .12-.06l26.173-25.976c.06-.06.06-.12.06-.179 0-.179-.06-.239-.12-.239zm-26.353-1.91c-1.809-.717-3.135-2.33-3.618-4.18 0-.06-.06-.12-.18-.18l-34.977-7.225h-.06c-.061 0-.121.06-.182.12-.18.298-.301.537-.482.776a.18.18 0 0 0 0 .239l31.84 46.099c.061.06.061.06.121.06s.12 0 .12-.06l1.93-1.911c0-.06.06-.06.06-.12l5.428-33.44c.121 0 .121-.119 0-.179zM49.932 80.135c0 .12.06.18.181.18l34.675 7.165h.06c.06 0 .121-.06.181-.12 1.026-1.79 2.835-2.985 4.885-3.104.12 0 .181-.06.181-.18l3.739-22.99c0-.06 0-.179-.12-.179a6.559 6.559 0 0 1-.785-.657c-.06-.06-.12-.06-.12-.06h-.06L49.871 78.525c-.12.06-.12.12-.12.239.06.478.18.896.18 1.373zM35.4 85.93c-.181-.24-.362-.478-.543-.777-.06-.06-.12-.12-.18-.12h-.061l-14.956 6.39c-.06 0-.12.06-.12.12s0 .12.06.179l7.297 7.225c.06.06.12.06.12.06.06 0 .121-.06.181-.12l8.262-12.838s0-.06-.06-.12zm9.89 2.328c-.06-.06-.12-.12-.181-.12h-.06a8.09 8.09 0 0 1-3.317.717c-.905 0-1.75-.119-2.654-.417h-.06c-.06 0-.12.06-.18.119l-8.685 13.495-.06.06a.18.18 0 0 0 0 .239l39.922 39.59c.06.06.12.06.12.06.06 0 .12 0 .12-.06l6.996-6.986a.18.18 0 0 0 0-.24L45.29 88.258zM39.68 72.672c.06.06.121.12.181.12h.06c.604-.12 1.267-.24 1.87-.24.663 0 1.387.12 2.05.3h.06c.061 0 .121-.06.182-.12l16.161-25.08a.18.18 0 0 0 0-.239 7.028 7.028 0 0 1-1.99-4.897c0-.537.06-1.074.181-1.612 0-.12-.06-.179-.12-.239-2.05-.895-20.203-8.539-20.203-8.599h-.06c-.06 0-.12 0-.12.06L22.554 47.413a.18.18 0 0 0 0 .239l17.126 25.02zm1.75-43.71s18.332 7.762 19.116 8.12h.06c.06 0 .06 0 .12-.06 1.267-1.014 2.895-1.612 4.524-1.612.783 0 1.567.12 2.351.359h.06c.061 0 .121-.06.182-.12l14.895-23.11a.18.18 0 0 0 0-.238L70.375.06c-.06-.06-.06-.06-.12-.06s-.12 0-.12.06L41.428 28.603c-.06.06-.06.12-.06.18-.06.119 0 .119.06.178zm-7.117 48.07c.06 0 .12-.06.181-.12.362-.717.905-1.374 1.448-1.97a.18.18 0 0 0 0-.24c-.181-.239-16.524-23.885-16.524-23.945-.06-.06-.06-.06-.18-.12-.061 0-.121 0-.121.06L.06 69.567c-.06.06-.06.12-.06.179 0 .06.06.12.18.12l34.133 7.165c-.06 0-.06 0 0 0zm-1.568 4.12c0-.12-.06-.18-.18-.18l-29.61-6.15h-.06c-.06 0-.121.06-.181.12-.06.059 0 .178.06.238l13.207 13.137c.06.06.12.06.12.06h.06l16.403-6.987c.121-.12.181-.179.181-.239z" fill="url(#a)" fill-rule="evenodd"/></svg>