<svg width="146px" height="32px" viewBox="0 0 146 32" version="1.1" xmlns="http://www.w3.org/2000/svg" xmlns:xlink="http://www.w3.org/1999/xlink">
    <defs>
        <linearGradient x1="15.9624201%" y1="-23.9258025%" x2="136.692419%" y2="197.099803%" id="linearGradient-1">
            <stop stop-color="#20C6B7" offset="0%"></stop>
            <stop stop-color="#4D9ABF" offset="100%"></stop>
        </linearGradient>
    </defs>
    <g id="Page-1" stroke="none" stroke-width="1" fill="none" fill-rule="evenodd">
        <g id="Artboard">
            <rect id="Background" fill="url(#linearGradient-1)" x="0" y="0" width="146" height="32" rx="4"></rect>
            <path d="M72.3066406,18.2587891 L72.5458984,19.1884766 L72.5869141,19.1884766 L74.4052734,13.6035156 L75.9023438,13.6035156 L72.7919922,22.1347656 C72.6051423,22.6315129 72.3374041,23.0644513 71.9887695,23.4335938 C71.640135,23.8027362 71.1695993,23.9873047 70.5771484,23.9873047 C70.4677729,23.9873047 70.3287769,23.9747723 70.1601562,23.949707 C69.9915356,23.9246418 69.8616541,23.9007163 69.7705078,23.8779297 L69.9072266,22.8183594 C69.8798827,22.8138021 69.9607738,22.8183593 70.1499023,22.8320312 C70.3390309,22.8457032 70.4586586,22.8525391 70.5087891,22.8525391 C70.7958999,22.8525391 71.030598,22.7249362 71.2128906,22.4697266 C71.3951832,22.214517 71.5478509,21.9319677 71.6708984,21.6220703 L71.9921875,20.8496094 L69.2441406,13.6035156 L70.7480469,13.6035156 L72.3066406,18.2587891 Z M61.7724609,17.2333984 C61.7724609,16.139643 62.0686819,15.2384476 62.6611328,14.5297852 C63.2535837,13.8211228 64.0579376,13.4667969 65.0742188,13.4667969 C66.0996145,13.4667969 66.909665,13.8199834 67.5043945,14.5263672 C68.0991241,15.2327509 68.3964844,16.1350857 68.3964844,17.2333984 L68.3964844,17.3837891 C68.3964844,18.4866592 68.1002634,19.3889939 67.5078125,20.0908203 C66.9153616,20.7926467 66.1087291,21.1435547 65.0878906,21.1435547 C64.0670522,21.1435547 63.2592803,20.7915074 62.6645508,20.0874023 C62.0698212,19.3832973 61.7724609,18.4821018 61.7724609,17.3837891 L61.7724609,17.2333984 Z M63.1191406,17.3837891 C63.1191406,18.1676471 63.2843408,18.8147761 63.6147461,19.3251953 C63.9451514,19.8356145 64.4361947,20.0908203 65.0878906,20.0908203 C65.730472,20.0908203 66.2180973,19.8356145 66.5507812,19.3251953 C66.8834652,18.8147761 67.0498047,18.1676471 67.0498047,17.3837891 L67.0498047,17.2333984 C67.0498047,16.458655 66.8823259,15.8138047 66.5473633,15.2988281 C66.2124007,14.7838516 65.7213574,14.5263672 65.0742188,14.5263672 C64.4316374,14.5263672 63.9451514,14.7838516 63.6147461,15.2988281 C63.2843408,15.8138047 63.1191406,16.458655 63.1191406,17.2333984 L63.1191406,17.3837891 Z M60.015625,21 L58.6689453,21 L58.6689453,10.3359375 L60.015625,10.3359375 L60.015625,21 Z M56.9052734,17.5820312 C56.9052734,18.6484428 56.6500677,19.508623 56.1396484,20.1625977 C55.6292292,20.8165723 54.9251347,21.1435547 54.0273438,21.1435547 C53.5716123,21.1435547 53.171714,21.0672208 52.8276367,20.9145508 C52.4835595,20.7618807 52.1907564,20.5328791 51.9492188,20.2275391 L51.9492188,23.84375 L50.6025391,23.84375 L50.6025391,13.6035156 L51.6347656,13.6035156 L51.8466797,14.5605469 C52.0882174,14.2050763 52.3889956,13.9339202 52.7490234,13.7470703 C53.1090513,13.5602204 53.5283179,13.4667969 54.0068359,13.4667969 C54.9228561,13.4667969 55.6349258,13.8302373 56.1430664,14.5571289 C56.651207,15.2840206 56.9052734,16.2444602 56.9052734,17.4384766 L56.9052734,17.5820312 Z M55.5585938,17.4384766 C55.5585938,16.5999307 55.3933936,15.9106472 55.0629883,15.3706055 C54.732583,14.8305637 54.246097,14.5605469 53.6035156,14.5605469 C53.2161439,14.5605469 52.8857436,14.6482739 52.6123047,14.8237305 C52.3388658,14.9991871 52.1178394,15.2395818 51.9492188,15.5449219 L51.9492188,19.1201172 C52.1178394,19.4254573 52.3388658,19.6635734 52.6123047,19.8344727 C52.8857436,20.0053719 53.2207011,20.0908203 53.6171875,20.0908203 C54.2552115,20.0908203 54.7382796,19.8572615 55.0664062,19.3901367 C55.3945329,18.923012 55.5585938,18.3203162 55.5585938,17.5820312 L55.5585938,17.4384766 Z M46.2685547,21.1435547 C45.2386016,21.1435547 44.4194366,20.8006219 43.8110352,20.1147461 C43.2026337,19.4288703 42.8984375,18.539068 42.8984375,17.4453125 L42.8984375,17.1445312 C42.8984375,16.0917916 43.2117482,15.215661 43.8383789,14.5161133 C44.4650096,13.8165655 45.2067014,13.4667969 46.0634766,13.4667969 C47.0615284,13.4667969 47.8157527,13.7675751 48.3261719,14.3691406 C48.8365911,14.9707061 49.0917969,15.7727814 49.0917969,16.7753906 L49.0917969,17.6162109 L44.2929688,17.6162109 L44.2724609,17.6503906 C44.2861329,18.3613317 44.4661441,18.9457985 44.8125,19.4038086 C45.1588559,19.8618187 45.6442026,20.0908203 46.2685547,20.0908203 C46.7242861,20.0908203 47.1241845,20.0258796 47.4682617,19.8959961 C47.812339,19.7661126 48.1096993,19.5872407 48.3603516,19.359375 L48.8867188,20.234375 C48.6223945,20.4941419 48.2737652,20.7106111 47.8408203,20.8837891 C47.4078754,21.056967 46.8837921,21.1435547 46.2685547,21.1435547 Z M46.0634766,14.5263672 C45.6123024,14.5263672 45.2272151,14.7166322 44.9082031,15.097168 C44.5891911,15.4777037 44.3932295,15.9550753 44.3203125,16.5292969 L44.3339844,16.5634766 L47.7451172,16.5634766 L47.7451172,16.3857422 C47.7451172,15.8570937 47.6038426,15.4150408 47.3212891,15.0595703 C47.0387356,14.7040998 46.6194689,14.5263672 46.0634766,14.5263672 Z M34.2304688,21 L34.2304688,11.046875 L37.2861328,11.046875 C38.5895247,11.046875 39.6354127,11.4467733 40.4238281,12.246582 C41.2122435,13.0463907 41.6064453,14.0797463 41.6064453,15.3466797 L41.6064453,16.7070312 C41.6064453,17.978522 41.2122435,19.0118775 40.4238281,19.8071289 C39.6354127,20.6023803 38.5895247,21 37.2861328,21 L34.2304688,21 Z M35.5771484,12.1064453 L35.5771484,19.9472656 L37.2861328,19.9472656 C38.2067103,19.9472656 38.9324518,19.6442088 39.4633789,19.0380859 C39.994306,18.4319631 40.2597656,17.6549527 40.2597656,16.7070312 L40.2597656,15.3330078 C40.2597656,14.394201 39.994306,13.6217478 39.4633789,13.015625 C38.9324518,12.4095022 38.2067103,12.1064453 37.2861328,12.1064453 L35.5771484,12.1064453 Z" id="Combined-Shape" fill="#FFFFFF"></path>
            <path d="M131.191406,18.2587891 L131.430664,19.1884766 L131.47168,19.1884766 L133.290039,13.6035156 L134.787109,13.6035156 L131.676758,22.1347656 C131.489908,22.6315129 131.22217,23.0644513 130.873535,23.4335938 C130.524901,23.8027362 130.054365,23.9873047 129.461914,23.9873047 C129.352539,23.9873047 129.213543,23.9747723 129.044922,23.949707 C128.876301,23.9246418 128.74642,23.9007163 128.655273,23.8779297 L128.791992,22.8183594 C128.764648,22.8138021 128.845539,22.8183593 129.034668,22.8320312 C129.223797,22.8457032 129.343424,22.8525391 129.393555,22.8525391 C129.680665,22.8525391 129.915364,22.7249362 130.097656,22.4697266 C130.279949,22.214517 130.432617,21.9319677 130.555664,21.6220703 L130.876953,20.8496094 L128.128906,13.6035156 L129.632812,13.6035156 L131.191406,18.2587891 Z M124.65625,21 L124.65625,14.6015625 L123.500977,14.6015625 L123.500977,13.6035156 L124.65625,13.6035156 L124.65625,12.6669922 C124.65625,11.8785768 124.862465,11.2690451 125.274902,10.8383789 C125.687339,10.4077127 126.262692,10.1923828 127.000977,10.1923828 C127.155925,10.1923828 127.312011,10.2049152 127.469238,10.2299805 C127.626466,10.2550457 127.80078,10.2903644 127.992188,10.3359375 L127.828125,11.3613281 C127.746093,11.3430989 127.646973,11.3271485 127.530762,11.3134766 C127.41455,11.2998046 127.292644,11.2929688 127.165039,11.2929688 C126.77311,11.2929688 126.481446,11.4103178 126.290039,11.6450195 C126.098632,11.8797212 126.00293,12.2203754 126.00293,12.6669922 L126.00293,13.6035156 L127.541016,13.6035156 L127.541016,14.6015625 L126.00293,14.6015625 L126.00293,21 L124.65625,21 Z M122.024414,11.7099609 L120.677734,11.7099609 L120.677734,10.3359375 L122.024414,10.3359375 L122.024414,11.7099609 Z M122.024414,21 L120.677734,21 L120.677734,13.6035156 L122.024414,13.6035156 L122.024414,21 Z M118.49707,21 L117.150391,21 L117.150391,10.3359375 L118.49707,10.3359375 L118.49707,21 Z M113.978516,11.8193359 L113.978516,13.6035156 L115.379883,13.6035156 L115.379883,14.6015625 L113.978516,14.6015625 L113.978516,19.0927734 C113.978516,19.4391293 114.050292,19.682942 114.193848,19.8242188 C114.337403,19.9654955 114.527668,20.0361328 114.764648,20.0361328 C114.842123,20.0361328 114.927571,20.0270183 115.020996,20.0087891 C115.114421,19.9905598 115.197591,19.9677736 115.270508,19.9404297 L115.448242,20.8632812 C115.347981,20.9453129 115.20101,21.0125323 115.007324,21.0649414 C114.813638,21.1173505 114.618816,21.1435547 114.422852,21.1435547 C113.875974,21.1435547 113.440757,20.9783545 113.117188,20.6479492 C112.793618,20.3175439 112.631836,19.7991572 112.631836,19.0927734 L112.631836,14.6015625 L111.456055,14.6015625 L111.456055,13.6035156 L112.631836,13.6035156 L112.631836,11.8193359 L113.978516,11.8193359 Z M105.409668,20.1147461 C104.801266,19.4288703 104.49707,18.539068 104.49707,17.4453125 L104.49707,17.1445312 C104.49707,16.0917916 104.810381,15.215661 105.437012,14.5161133 C106.063642,13.8165655 106.805334,13.4667969 107.662109,13.4667969 C108.660161,13.4667969 109.414385,13.7675751 109.924805,14.3691406 C110.435224,14.9707061 110.69043,15.7727814 110.69043,16.7753906 L110.69043,17.6162109 L105.891602,17.6162109 L105.871094,17.6503906 C105.884766,18.3613317 106.064777,18.9457985 106.411133,19.4038086 C106.757489,19.8618187 107.242835,20.0908203 107.867188,20.0908203 C108.322919,20.0908203 108.722817,20.0258796 109.066895,19.8959961 C109.410972,19.7661126 109.708332,19.5872407 109.958984,19.359375 L110.485352,20.234375 C110.221027,20.4941419 109.872398,20.7106111 109.439453,20.8837891 C109.006508,21.056967 108.482425,21.1435547 107.867188,21.1435547 C106.837234,21.1435547 106.018069,20.8006219 105.409668,20.1147461 Z M106.506836,15.097168 C106.187824,15.4777037 105.991862,15.9550753 105.918945,16.5292969 L105.932617,16.5634766 L109.34375,16.5634766 L109.34375,16.3857422 C109.34375,15.8570937 109.202475,15.4150408 108.919922,15.0595703 C108.637368,14.7040998 108.218102,14.5263672 107.662109,14.5263672 C107.210935,14.5263672 106.825848,14.7166322 106.506836,15.097168 Z M98.0439453,13.6035156 L98.1396484,14.7041016 C98.3857434,14.3121725 98.6944968,14.0079763 99.065918,13.7915039 C99.4373391,13.5750315 99.8600237,13.4667969 100.333984,13.4667969 C101.131514,13.4667969 101.749021,13.7003557 102.186523,14.1674805 C102.624026,14.6346052 102.842773,15.3557894 102.842773,16.3310547 L102.842773,21 L101.496094,21 L101.496094,16.3583984 C101.496094,15.7067025 101.367352,15.244142 101.109863,14.9707031 C100.852375,14.6972643 100.459313,14.5605469 99.9306641,14.5605469 C99.5432923,14.5605469 99.2003596,14.6539704 98.9018555,14.8408203 C98.6033514,15.0276702 98.3652353,15.282876 98.1875,15.6064453 L98.1875,21 L96.8408203,21 L96.8408203,13.6035156 L98.0439453,13.6035156 Z M85.0898438,17.2333984 C85.0898438,16.139643 85.3860647,15.2384476 85.9785156,14.5297852 C86.5709665,13.8211228 87.3753204,13.4667969 88.3916016,13.4667969 C89.4169973,13.4667969 90.2270478,13.8199834 90.8217773,14.5263672 C91.4165069,15.2327509 91.7138672,16.1350857 91.7138672,17.2333984 L91.7138672,17.3837891 C91.7138672,18.4866592 91.4176462,19.3889939 90.8251953,20.0908203 C90.2327444,20.7926467 89.4261119,21.1435547 88.4052734,21.1435547 C87.384435,21.1435547 86.5766631,20.7915074 85.9819336,20.0874023 C85.3872041,19.3832973 85.0898438,18.4821018 85.0898438,17.3837891 L85.0898438,17.2333984 Z M86.4365234,17.3837891 C86.4365234,18.1676471 86.6017236,18.8147761 86.9321289,19.3251953 C87.2625342,19.8356145 87.7535775,20.0908203 88.4052734,20.0908203 C89.0478548,20.0908203 89.5354801,19.8356145 89.8681641,19.3251953 C90.200848,18.8147761 90.3671875,18.1676471 90.3671875,17.3837891 L90.3671875,17.2333984 C90.3671875,16.458655 90.1997087,15.8138047 89.8647461,15.2988281 C89.5297835,14.7838516 89.0387402,14.5263672 88.3916016,14.5263672 C87.7490202,14.5263672 87.2625342,14.7838516 86.9321289,15.2988281 C86.6017236,15.8138047 86.4365234,16.458655 86.4365234,17.2333984 L86.4365234,17.3837891 Z M82.3417969,11.8193359 L82.3417969,13.6035156 L83.7431641,13.6035156 L83.7431641,14.6015625 L82.3417969,14.6015625 L82.3417969,19.0927734 C82.3417969,19.4391293 82.4135735,19.682942 82.5571289,19.8242188 C82.7006843,19.9654955 82.8909493,20.0361328 83.1279297,20.0361328 C83.205404,20.0361328 83.2908524,20.0270183 83.3842773,20.0087891 C83.4777023,19.9905598 83.560872,19.9677736 83.6337891,19.9404297 L83.8115234,20.8632812 C83.7112625,20.9453129 83.5642913,21.0125323 83.3706055,21.0649414 C83.1769196,21.1173505 82.9820973,21.1435547 82.7861328,21.1435547 C82.2392551,21.1435547 81.8040381,20.9783545 81.4804688,20.6479492 C81.1568994,20.3175439 80.9951172,19.7991572 80.9951172,19.0927734 L80.9951172,14.6015625 L79.8193359,14.6015625 L79.8193359,13.6035156 L80.9951172,13.6035156 L80.9951172,11.8193359 L82.3417969,11.8193359 Z" id="Combined-Shape" fill="#FFFFFF" opacity="0.699999988"></path>
            <path d="M21.5836198,13.3658537 C21.6746954,13.41127 21.7505918,13.4718251 21.8113089,13.5399495 C21.8188985,13.5475189 21.8188985,13.5475189 21.8264882,13.5475189 L21.8340778,13.5475189 L23.5796945,12.7981497 C23.5872842,12.7905803 23.5948738,12.7830109 23.5948738,12.7754415 C23.5948738,12.7678722 23.5948738,12.7603028 23.5872842,12.7527334 L21.955512,11.1253154 C21.9479224,11.117746 21.9403327,11.117746 21.9403327,11.117746 L21.9327431,11.117746 C21.9251535,11.117746 21.9175638,11.1253154 21.9175638,11.1404542 L21.5608508,13.3431455 C21.5684405,13.3507149 21.5760301,13.3658537 21.5836198,13.3658537 Z M17.9633624,11.8898234 C18.0468485,12.0185029 18.0999759,12.1698907 18.1151552,12.3212784 C18.1151552,12.3288478 18.1227448,12.3364172 18.1303345,12.3439865 L20.7259907,13.4566863 L20.7335803,13.4566863 C20.7411699,13.4566863 20.7487596,13.4566863 20.7487596,13.4491169 C20.824656,13.3885618 20.9157316,13.3431455 21.0143969,13.312868 C21.0219865,13.312868 21.0295762,13.3052986 21.0295762,13.2901598 L21.4545959,10.6333053 C21.4545959,10.6257359 21.4545959,10.6181665 21.4470063,10.6105971 L19.8228237,8.98317914 C19.8152341,8.97560976 19.8152341,8.97560976 19.8076445,8.97560976 C19.8000548,8.97560976 19.7924652,8.98317914 19.7924652,8.99074853 L17.9633624,11.8519765 C17.9557728,11.8671152 17.9557728,11.882254 17.9633624,11.8898234 Z M26.8280596,15.9848612 L24.0426625,13.1993272 C24.0350728,13.1917578 24.0274832,13.1917578 24.0274832,13.1917578 L24.0198935,13.1917578 L22.1300737,14.0016821 C22.1224841,14.0092515 22.1148944,14.0168209 22.1148944,14.0243902 C22.1148944,14.0319596 22.1224841,14.0470984 22.1300737,14.0470984 L26.7901114,16.0378469 L26.797701,16.0378469 C26.8052907,16.0378469 26.8128803,16.0378469 26.8128803,16.0302775 L26.8280596,16.0151388 C26.8432389,16.0151388 26.8432389,15.9924306 26.8280596,15.9848612 Z M26.3650917,16.4390244 L21.8947949,14.5315391 L21.8872053,14.5315391 C21.8796156,14.5315391 21.872026,14.5315391 21.8644364,14.5391085 C21.7430022,14.705635 21.5608508,14.8116064 21.348341,14.8418839 C21.3407513,14.8418839 21.3255721,14.8494533 21.3255721,14.8645921 L20.8474249,17.824222 C20.8474249,17.8317914 20.8474249,17.8393608 20.8550145,17.8469302 C21.0219865,17.9756098 21.1206518,18.1648444 21.1434208,18.3767872 C21.1434208,18.391926 21.1510104,18.3994954 21.1661897,18.3994954 L23.8681008,18.9671993 L23.8756904,18.9671993 C23.8832801,18.9671993 23.8908697,18.9671993 23.8908697,18.9596299 L26.3650917,16.4844407 C26.3726813,16.4768713 26.3726813,16.4693019 26.3726813,16.4617325 C26.3726813,16.4541632 26.3726813,16.4465938 26.3650917,16.4390244 Z M20.4451741,13.9108495 L18.0013106,12.8662742 L17.993721,12.8662742 C17.9861314,12.8662742 17.9785417,12.8738436 17.9709521,12.881413 C17.80398,13.1387721 17.5231634,13.2901598 17.2195779,13.2901598 C17.1740401,13.2901598 17.1285023,13.2825904 17.0753748,13.275021 L17.0677852,13.275021 C17.0601955,13.275021 17.0526059,13.2825904 17.0450162,13.2901598 L15.0337622,16.431455 C15.0261725,16.4390244 15.0261725,16.4541632 15.0337622,16.4617325 C15.0413518,16.4693019 15.0489415,16.4693019 15.0565311,16.4693019 L15.0641207,16.4693019 L20.4299948,14.1606392 C20.4375844,14.1530698 20.4451741,14.1455004 20.4451741,14.137931 L20.4451741,14.1076535 L20.4451741,14.0698066 C20.4451741,14.0243902 20.4527637,13.9789739 20.4603533,13.941127 C20.4603533,13.9259882 20.4527637,13.9184188 20.4451741,13.9108495 Z M23.3899536,19.4062237 L21.0143969,18.9142136 L21.0068073,18.9142136 C20.9992176,18.9142136 20.991628,18.921783 20.9840384,18.921783 C20.8929627,19.0353238 20.7791181,19.1261564 20.6425046,19.1791421 C20.634915,19.1791421 20.6273254,19.1942809 20.6273254,19.2018503 L20.0581025,22.7291842 C20.0581025,22.744323 20.0656922,22.7518923 20.0732818,22.7594617 L20.0884611,22.7594617 C20.0960507,22.7594617 20.1036404,22.7594617 20.1036404,22.7518923 L23.3975432,19.4592094 C23.4051329,19.45164 23.4051329,19.4440706 23.4051329,19.4365013 C23.4051329,19.4137931 23.3975432,19.4062237 23.3899536,19.4062237 Z M20.0732818,19.1640034 C19.8455927,19.0731707 19.6786206,18.8687973 19.6179035,18.6341463 C19.6179035,18.626577 19.6103139,18.6190076 19.5951346,18.6114382 L15.1931446,17.6955425 C15.1931446,17.6955425 15.1931446,17.6955425 15.1855549,17.6955425 C15.1779653,17.6955425 15.1703757,17.7031119 15.162786,17.7106812 C15.1400171,17.7485282 15.1248378,17.7788057 15.1020689,17.8090833 C15.0944793,17.8166526 15.0944793,17.8317914 15.1020689,17.8393608 L19.1093978,23.6829268 C19.1169874,23.6904962 19.1169874,23.6904962 19.1245771,23.6904962 C19.1321667,23.6904962 19.1397563,23.6904962 19.1397563,23.6829268 L19.3826247,23.4407065 C19.3826247,23.4331371 19.3902144,23.4331371 19.3902144,23.4255677 L20.0732818,19.1867115 C20.0884611,19.1867115 20.0884611,19.1715728 20.0732818,19.1640034 Z M15.2842202,17.1581161 C15.2842202,17.1732548 15.2918099,17.1808242 15.3069892,17.1808242 L19.671031,18.0891505 L19.6786206,18.0891505 C19.6862103,18.0891505 19.6937999,18.0815812 19.7013895,18.0740118 C19.8304134,17.8469302 20.0581025,17.6955425 20.3161502,17.6804037 C20.3313295,17.6804037 20.3389191,17.6728343 20.3389191,17.6576955 L20.8094767,14.7434819 C20.8094767,14.7359125 20.8094767,14.7207738 20.7942974,14.7207738 C20.7639389,14.6980656 20.7335803,14.6753574 20.6956321,14.6375105 C20.6880425,14.6299411 20.6804528,14.6299411 20.6804528,14.6299411 L20.6728632,14.6299411 L15.2766306,16.9537426 C15.2614513,16.961312 15.2614513,16.9688814 15.2614513,16.9840202 C15.269041,17.0445753 15.2842202,17.097561 15.2842202,17.1581161 Z M13.4551175,17.8923465 C13.4323486,17.862069 13.4095797,17.8317914 13.3868107,17.7939445 C13.3792211,17.7863751 13.3716315,17.7788057 13.3640418,17.7788057 L13.3564522,17.7788057 L11.474222,18.58873 C11.4666323,18.58873 11.4590427,18.5962994 11.4590427,18.6038688 C11.4590427,18.6114382 11.4590427,18.6190076 11.4666323,18.626577 L12.3849785,19.5424727 C12.3925682,19.5500421 12.4001578,19.5500421 12.4001578,19.5500421 C12.4077474,19.5500421 12.4153371,19.5424727 12.4229267,19.5349033 L13.4627071,17.9074853 C13.4627071,17.9074853 13.4627071,17.8999159 13.4551175,17.8923465 Z M14.6998181,18.1875526 C14.6922285,18.1799832 14.6846388,18.1724138 14.6770492,18.1724138 L14.6694596,18.1724138 C14.5328461,18.2329689 14.3962326,18.2632464 14.2520295,18.2632464 C14.1381849,18.2632464 14.03193,18.2481077 13.9180854,18.2102607 L13.9104958,18.2102607 C13.9029061,18.2102607 13.8953165,18.2178301 13.8877269,18.2253995 L12.794819,19.9360807 L12.7872293,19.9436501 C12.7796397,19.9512195 12.7796397,19.9663583 12.7872293,19.9739277 L17.8115697,24.9924306 C17.8191593,25 17.826749,25 17.826749,25 C17.8343386,25 17.8419282,25 17.8419282,24.9924306 L18.7223262,24.1068124 C18.7299159,24.0992431 18.7299159,24.0841043 18.7223262,24.0765349 L14.6998181,18.1875526 Z M13.9939818,16.2119428 C14.0015714,16.2195122 14.0091611,16.2270816 14.0167507,16.2270816 L14.0243403,16.2270816 C14.1002367,16.2119428 14.1837227,16.196804 14.2596191,16.196804 C14.3431051,16.196804 14.4341808,16.2119428 14.5176668,16.234651 L14.5252564,16.234651 C14.5328461,16.234651 14.5404357,16.2270816 14.5480254,16.2195122 L16.5820483,13.0403701 C16.589638,13.0328007 16.589638,13.0176619 16.5820483,13.0100925 C16.4226659,12.843566 16.3315903,12.6240538 16.3315903,12.3894029 C16.3315903,12.3212784 16.3391799,12.2531539 16.3543592,12.1850294 C16.3543592,12.1698907 16.3467696,12.1623213 16.3391799,12.1547519 C16.0811322,12.0412111 13.7966512,11.0723297 13.7966512,11.0647603 L13.7890616,11.0647603 C13.7814719,11.0647603 13.7738823,11.0647603 13.7738823,11.0723297 L11.8385246,13.0100925 C11.830935,13.0176619 11.830935,13.0328007 11.8385246,13.0403701 L13.9939818,16.2119428 Z M14.2140813,10.6711522 C14.2140813,10.6711522 16.5213312,11.6551724 16.6199965,11.7005887 L16.6275862,11.7005887 C16.6351758,11.7005887 16.6351758,11.7005887 16.6427654,11.6930193 C16.8021478,11.5643398 17.0070681,11.4886459 17.2119883,11.4886459 C17.3106536,11.4886459 17.4093189,11.5037847 17.5079842,11.5340622 L17.5155738,11.5340622 C17.5231634,11.5340622 17.5307531,11.5264929 17.5383427,11.5189235 L19.4129833,8.58957107 C19.4205729,8.58200168 19.4205729,8.56686291 19.4129833,8.55929352 L17.8571075,7.00756939 C17.8495179,7 17.8495179,7 17.8419282,7 C17.8343386,7 17.826749,7 17.826749,7.00756939 L14.2140813,10.6257359 C14.2064916,10.6333053 14.2064916,10.6408747 14.2064916,10.6484441 C14.198902,10.6635828 14.2064916,10.6635828 14.2140813,10.6711522 Z M13.318504,16.764508 C13.3260936,16.764508 13.3336833,16.7569386 13.3412729,16.7493692 C13.3868107,16.6585366 13.4551175,16.5752733 13.5234242,16.4995795 C13.5310139,16.4920101 13.5310139,16.4768713 13.5234242,16.4693019 C13.5006553,16.4390244 11.4438634,13.4415475 11.4438634,13.4339781 C11.4362738,13.4264087 11.4362738,13.4264087 11.4210945,13.4188394 C11.4135049,13.4188394 11.4059152,13.4188394 11.4059152,13.4264087 L9.00758964,15.8183347 C9,15.8259041 9,15.8334735 9,15.8410429 C9,15.8486123 9.00758964,15.8561817 9.02276891,15.8561817 L13.318504,16.764508 C13.3109144,16.764508 13.3109144,16.764508 13.318504,16.764508 Z M13.1211734,17.2867956 C13.1211734,17.2716569 13.1135838,17.2640875 13.0984045,17.2640875 L9.37189226,16.4844407 C9.37189226,16.4844407 9.37189226,16.4844407 9.36430262,16.4844407 C9.35671298,16.4844407 9.34912335,16.4920101 9.34153371,16.4995795 C9.33394407,16.5071489 9.34153371,16.5222876 9.34912335,16.529857 L11.0112541,18.195122 C11.0188437,18.2026913 11.0264333,18.2026913 11.0264333,18.2026913 L11.034023,18.2026913 L13.0984045,17.3170732 C13.1135838,17.3019344 13.1211734,17.294365 13.1211734,17.2867956 Z" id="Combined-Shape" fill="#FFFFFF"></path>
        </g>
    </g>
</svg>
