<?xml version="1.0" encoding="UTF-8"?>
<svg width="194px" height="42px" viewBox="0 0 194 42" version="1.1" xmlns="http://www.w3.org/2000/svg" xmlns:xlink="http://www.w3.org/1999/xlink">
    <!-- Generator: Sketch 41.2 (35397) - http://www.bohemiancoding.com/sketch -->
    <title>deploy-btn-wire-large</title>
    <desc>Created with Sketch.</desc>
    <defs>
        <linearGradient x1="0.757764609%" y1="0%" x2="100%" y2="100%" id="linearGradient-1">
            <stop stop-color="#20C6B7" offset="0%"></stop>
            <stop stop-color="#4D9ABF" offset="100%"></stop>
        </linearGradient>
        <rect id="path-2" x="0" y="0" width="194" height="42" rx="4"></rect>
        <mask id="mask-3" maskContentUnits="userSpaceOnUse" maskUnits="objectBoundingBox" x="0" y="0" width="194" height="42" fill="white">
            <use xlink:href="#path-2"></use>
        </mask>
    </defs>
    <g id="Page-1" stroke="none" stroke-width="1" fill="none" fill-rule="evenodd">
        <g id="deploy-btn-wire-large">
            <use id="Background" stroke="url(#linearGradient-1)" mask="url(#mask-3)" stroke-width="2" xlink:href="#path-2"></use>
            <g id="Group" transform="translate(16.000000, 9.000000)">
                <path d="M82.0338883,14.4928096 L82.3417312,15.6889991 L82.3945042,15.6889991 L84.7341101,8.50306669 L86.660327,8.50306669 L82.6583696,19.4798643 C82.4179577,20.1190079 82.0734703,20.6760514 81.624897,21.1510114 C81.1763237,21.6259713 80.5709055,21.8634477 79.808624,21.8634477 C79.6678952,21.8634477 79.4890549,21.8473228 79.2720979,21.8150724 C79.0551408,21.7828221 78.8880278,21.7520381 78.7707537,21.7227196 L78.946664,20.3594154 C78.9114817,20.3535517 79.0155609,20.3594153 79.2589046,20.3770064 C79.5022483,20.3945975 79.6561682,20.4033929 79.7206689,20.4033929 C80.0900822,20.4033929 80.3920584,20.2392117 80.6266065,19.9108443 C80.8611547,19.5824769 81.0575858,19.2189328 81.2159058,18.820201 L81.6292948,17.8263082 L78.0934994,8.50306669 L80.0285118,8.50306669 L82.0338883,14.4928096 Z M68.480006,13.173483 C68.480006,11.7661942 68.861141,10.6066643 69.6234224,9.69485842 C70.3857038,8.78305256 71.4206319,8.32715647 72.7282378,8.32715647 C74.047571,8.32715647 75.0898286,8.78158666 75.8550419,9.69046066 C76.6202552,10.5993347 77.0028561,11.7603305 77.0028561,13.173483 L77.0028561,13.3669842 C77.0028561,14.7860004 76.6217211,15.9469962 75.8594396,16.8500065 C75.0971582,17.7530168 74.0592983,18.2045152 72.7458288,18.2045152 C71.4323593,18.2045152 70.3930334,17.7515509 69.6278202,16.8456088 C68.8626069,15.9396666 68.480006,14.7801367 68.480006,13.3669842 L68.480006,13.173483 Z M70.2127216,13.3669842 C70.2127216,14.3755412 70.4252777,15.2081745 70.8503962,15.8649093 C71.2755147,16.5216441 71.9073192,16.8500065 72.7458288,16.8500065 C73.5726109,16.8500065 74.2000178,16.5216441 74.6280681,15.8649093 C75.0561184,15.2081745 75.2701404,14.3755412 75.2701404,13.3669842 L75.2701404,13.173483 C75.2701404,12.1766534 75.0546525,11.3469519 74.6236704,10.6843534 C74.1926882,10.0217549 73.5608836,9.69046066 72.7282378,9.69046066 C71.9014556,9.69046066 71.2755147,10.0217549 70.8503962,10.6843534 C70.4252777,11.3469519 70.2127216,12.1766534 70.2127216,13.173483 L70.2127216,13.3669842 Z M66.2195597,18.0198095 L64.486844,18.0198095 L64.486844,4.29881248 L66.2195597,4.29881248 L66.2195597,18.0198095 Z M62.2176022,13.622054 C62.2176022,14.9941606 61.8892398,16.100918 61.232505,16.9423594 C60.5757702,17.7838008 59.6698417,18.2045152 58.5146921,18.2045152 C57.9283218,18.2045152 57.4137896,18.1062997 56.97108,17.9098656 C56.5283704,17.7134315 56.1516331,17.4187849 55.8408568,17.0259168 L55.8408568,21.678742 L54.1081412,21.678742 L54.1081412,8.50306669 L55.4362633,8.50306669 L55.7089242,9.73443822 C56.0197004,9.27706936 56.406699,8.92818425 56.8699316,8.68777242 C57.3331642,8.44736059 57.8726168,8.32715647 58.4883056,8.32715647 C59.66691,8.32715647 60.5830999,8.79477979 61.2369028,9.73004046 C61.8907057,10.6653011 62.2176022,11.9010581 62.2176022,13.4373483 L62.2176022,13.622054 Z M60.4848866,13.4373483 C60.4848866,12.3584269 60.2723305,11.4715551 59.847212,10.7767063 C59.4220936,10.0818574 58.7961526,9.73443822 57.9693705,9.73443822 C57.4709557,9.73443822 57.0458436,9.84731281 56.6940214,10.0730654 C56.3421992,10.298818 56.0578139,10.6081237 55.8408568,11.0009918 L55.8408568,15.601044 C56.0578139,15.9939121 56.3421992,16.300286 56.6940214,16.5201749 C57.0458436,16.7400637 57.4768193,16.8500065 57.9869615,16.8500065 C58.8078799,16.8500065 59.4294232,16.5494962 59.8516098,15.9484667 C60.2737964,15.3474371 60.4848866,14.571974 60.4848866,13.622054 L60.4848866,13.4373483 Z M48.5317873,18.2045152 C47.2065903,18.2045152 46.1526055,17.7632782 45.3698011,16.8807908 C44.5869967,15.9983035 44.1956004,14.8534326 44.1956004,13.4461438 L44.1956004,13.0591413 C44.1956004,11.7046259 44.598724,10.5773458 45.4049831,9.6772674 C46.2112423,8.77718895 47.1655457,8.32715647 48.2679219,8.32715647 C49.552073,8.32715647 50.5225013,8.71415508 51.1792361,9.48816391 C51.8359708,10.2621727 52.1643333,11.294169 52.1643333,12.5841837 L52.1643333,13.6660316 L45.9898846,13.6660316 L45.9634981,13.7100091 C45.9810892,14.6247468 46.212702,15.3767555 46.6583435,15.9660577 C47.1039849,16.5553599 47.7284599,16.8500065 48.5317873,16.8500065 C49.1181576,16.8500065 49.6326898,16.76645 50.0753994,16.5993345 C50.518109,16.4322189 50.9007099,16.202072 51.2232136,15.9088869 L51.9004679,17.0347123 C51.5603732,17.3689433 51.1118066,17.6474651 50.5547548,17.8702858 C49.997703,18.0931065 49.3233872,18.2045152 48.5317873,18.2045152 Z M48.2679219,9.69046066 C47.6874153,9.69046066 47.1919398,9.9352666 46.7814806,10.4248858 C46.3710214,10.914505 46.1188859,11.5287187 46.0250667,12.2675454 L46.0426577,12.3115229 L50.4316176,12.3115229 L50.4316176,12.0828396 C50.4316176,11.40265 50.2498456,10.8338794 49.886296,10.3765105 C49.5227463,9.91914166 48.9832937,9.69046066 48.2679219,9.69046066 Z M33.0428926,18.0198095 L33.0428926,5.21354561 L36.974486,5.21354561 C38.6515051,5.21354561 39.9972048,5.72807786 41.0116255,6.75715778 C42.0260461,7.7862377 42.5332488,9.11581247 42.5332488,10.745922 L42.5332488,12.4962286 C42.5332488,14.1322018 42.0260461,15.4617766 41.0116255,16.4849928 C39.9972048,17.508209 38.6515051,18.0198095 36.974486,18.0198095 L33.0428926,18.0198095 Z M34.7756082,6.5768498 L34.7756082,16.6653008 L36.974486,16.6653008 C38.158954,16.6653008 39.0927347,16.2753704 39.7758562,15.4954979 C40.4589776,14.7156253 40.8005332,13.7158789 40.8005332,12.4962286 L40.8005332,10.7283309 C40.8005332,9.52040808 40.4589776,8.52652529 39.7758562,7.74665275 C39.0927347,6.96678022 38.158954,6.5768498 36.974486,6.5768498 L34.7756082,6.5768498 Z" id="Combined-Shape" fill="#313D3E"></path>
                <path d="M157.798419,14.4928096 L158.106262,15.6889991 L158.159035,15.6889991 L160.498641,8.50306669 L162.424858,8.50306669 L158.4229,19.4798643 C158.182489,20.1190079 157.838001,20.6760514 157.389428,21.1510114 C156.940855,21.6259713 156.335436,21.8634477 155.573155,21.8634477 C155.432426,21.8634477 155.253586,21.8473228 155.036629,21.8150724 C154.819672,21.7828221 154.652559,21.7520381 154.535285,21.7227196 L154.711195,20.3594154 C154.676013,20.3535517 154.780092,20.3594153 155.023435,20.3770064 C155.266779,20.3945975 155.420699,20.4033929 155.4852,20.4033929 C155.854613,20.4033929 156.156589,20.2392117 156.391137,19.9108443 C156.625686,19.5824769 156.822117,19.2189328 156.980437,18.820201 L157.393826,17.8263082 L153.85803,8.50306669 L155.793043,8.50306669 L157.798419,14.4928096 Z M149.389911,18.0198095 L149.389911,9.78721128 L147.903469,9.78721128 L147.903469,8.50306669 L149.389911,8.50306669 L149.389911,7.2980817 C149.389911,6.28366103 149.655239,5.49940249 150.185904,4.94528253 C150.71657,4.39116257 151.456851,4.11410675 152.406771,4.11410675 C152.606137,4.11410675 152.806966,4.13023169 153.009263,4.16248206 C153.211561,4.19473243 153.435845,4.24017545 153.68212,4.29881248 L153.471028,5.61813911 C153.365481,5.5946843 153.237948,5.57416165 153.088423,5.55657054 C152.938899,5.53897943 152.782047,5.53018401 152.617863,5.53018401 C152.113585,5.53018401 151.738313,5.6811721 151.492038,5.98315282 C151.245762,6.28513353 151.122626,6.72343878 151.122626,7.2980817 L151.122626,8.50306669 L153.101616,8.50306669 L153.101616,9.78721128 L151.122626,9.78721128 L151.122626,18.0198095 L149.389911,18.0198095 Z M146.003639,6.06671017 L144.270923,6.06671017 L144.270923,4.29881248 L146.003639,4.29881248 L146.003639,6.06671017 Z M146.003639,18.0198095 L144.270923,18.0198095 L144.270923,8.50306669 L146.003639,8.50306669 L146.003639,18.0198095 Z M141.465155,18.0198095 L139.73244,18.0198095 L139.73244,4.29881248 L141.465155,4.29881248 L141.465155,18.0198095 Z M135.651323,6.20743835 L135.651323,8.50306669 L137.454402,8.50306669 L137.454402,9.78721128 L135.651323,9.78721128 L135.651323,15.5658619 C135.651323,16.0115034 135.743675,16.3252068 135.928381,16.5069816 C136.113088,16.6887564 136.357894,16.7796424 136.662806,16.7796424 C136.762489,16.7796424 136.872432,16.7679152 136.992638,16.7444604 C137.112844,16.7210056 137.219855,16.6916875 137.313674,16.6565053 L137.542358,17.8438993 C137.413356,17.9494459 137.224255,18.0359342 136.975047,18.1033668 C136.72584,18.1707994 136.47517,18.2045152 136.223031,18.2045152 C135.519387,18.2045152 134.959411,17.9919592 134.543088,17.5668407 C134.126765,17.1417222 133.918607,16.4747359 133.918607,15.5658619 L133.918607,9.78721128 L132.405779,9.78721128 L132.405779,8.50306669 L133.918607,8.50306669 L133.918607,6.20743835 L135.651323,6.20743835 Z M124.62615,16.8807908 C123.843345,15.9983035 123.451949,14.8534326 123.451949,13.4461438 L123.451949,13.0591413 C123.451949,11.7046259 123.855073,10.5773458 124.661332,9.6772674 C125.467591,8.77718895 126.421894,8.32715647 127.524271,8.32715647 C128.808422,8.32715647 129.77885,8.71415508 130.435585,9.48816391 C131.09232,10.2621727 131.420682,11.294169 131.420682,12.5841837 L131.420682,13.6660316 L125.246233,13.6660316 L125.219847,13.7100091 C125.237438,14.6247468 125.469051,15.3767555 125.914692,15.9660577 C126.360334,16.5553599 126.984809,16.8500065 127.788136,16.8500065 C128.374506,16.8500065 128.889039,16.76645 129.331748,16.5993345 C129.774458,16.4322189 130.157059,16.202072 130.479562,15.9088869 L131.156817,17.0347123 C130.816722,17.3689433 130.368155,17.6474651 129.811103,17.8702858 C129.254052,18.0931065 128.579736,18.2045152 127.788136,18.2045152 C126.462939,18.2045152 125.408954,17.7632782 124.62615,16.8807908 Z M126.037829,10.4248858 C125.62737,10.914505 125.375235,11.5287187 125.281415,12.2675454 L125.299006,12.3115229 L129.687966,12.3115229 L129.687966,12.0828396 C129.687966,11.40265 129.506194,10.8338794 129.142645,10.3765105 C128.779095,9.91914166 128.239642,9.69046066 127.524271,9.69046066 C126.943764,9.69046066 126.448289,9.9352666 126.037829,10.4248858 Z M115.148987,8.50306669 L115.272124,9.91914394 C115.588764,9.41486547 115.986024,9.02346914 116.463916,8.74494324 C116.941808,8.46641734 117.485658,8.32715647 118.095483,8.32715647 C119.121631,8.32715647 119.916151,8.62766676 120.479066,9.22869634 C121.041982,9.82972592 121.323435,10.757643 121.323435,12.0124755 L121.323435,18.0198095 L119.59072,18.0198095 L119.59072,12.0476576 C119.59072,11.209148 119.425073,10.6139911 119.093773,10.2621689 C118.762474,9.91034667 118.256737,9.73443822 117.576548,9.73443822 C117.078133,9.73443822 116.636896,9.85464233 116.252823,10.0950542 C115.868751,10.335466 115.562377,10.6638285 115.333693,11.0801514 L115.333693,18.0198095 L113.600977,18.0198095 L113.600977,8.50306669 L115.148987,8.50306669 Z M98.4814937,13.173483 C98.4814937,11.7661942 98.8626287,10.6066643 99.6249101,9.69485842 C100.387192,8.78305256 101.42212,8.32715647 102.729725,8.32715647 C104.049059,8.32715647 105.091316,8.78158666 105.85653,9.69046066 C106.621743,10.5993347 107.004344,11.7603305 107.004344,13.173483 L107.004344,13.3669842 C107.004344,14.7860004 106.623209,15.9469962 105.860927,16.8500065 C105.098646,17.7530168 104.060786,18.2045152 102.747316,18.2045152 C101.433847,18.2045152 100.394521,17.7515509 99.6293078,16.8456088 C98.8640946,15.9396666 98.4814937,14.7801367 98.4814937,13.3669842 L98.4814937,13.173483 Z M100.214209,13.3669842 C100.214209,14.3755412 100.426765,15.2081745 100.851884,15.8649093 C101.277002,16.5216441 101.908807,16.8500065 102.747316,16.8500065 C103.574099,16.8500065 104.201505,16.5216441 104.629556,15.8649093 C105.057606,15.2081745 105.271628,14.3755412 105.271628,13.3669842 L105.271628,13.173483 C105.271628,12.1766534 105.05614,11.3469519 104.625158,10.6843534 C104.194176,10.0217549 103.562371,9.69046066 102.729725,9.69046066 C101.902943,9.69046066 101.277002,10.0217549 100.851884,10.6843534 C100.426765,11.3469519 100.214209,12.1766534 100.214209,13.173483 L100.214209,13.3669842 Z M94.9456983,6.20743835 L94.9456983,8.50306669 L96.748778,8.50306669 L96.748778,9.78721128 L94.9456983,9.78721128 L94.9456983,15.5658619 C94.9456983,16.0115034 95.0380502,16.3252068 95.2227569,16.5069816 C95.4074635,16.6887564 95.6522695,16.7796424 95.957182,16.7796424 C96.056865,16.7796424 96.1668078,16.7679152 96.2870137,16.7444604 C96.4072196,16.7210056 96.5142306,16.6916875 96.6080498,16.6565053 L96.8367331,17.8438993 C96.7077317,17.9494459 96.5186301,18.0359342 96.2694227,18.1033668 C96.0202153,18.1707994 95.7695457,18.2045152 95.5174065,18.2045152 C94.8137621,18.2045152 94.2537868,17.9919592 93.8374639,17.5668407 C93.421141,17.1417222 93.2129826,16.4747359 93.2129826,15.5658619 L93.2129826,9.78721128 L91.7001548,9.78721128 L91.7001548,8.50306669 L93.2129826,8.50306669 L93.2129826,6.20743835 L94.9456983,6.20743835 Z" id="Combined-Shape" fill="#8B8B8B" opacity="0.699999988"></path>
                <path d="M16.7707283,8.19727712 C16.8879115,8.25571236 16.9855641,8.33362603 17.0636862,8.4212789 C17.0734515,8.43101811 17.0734515,8.43101811 17.0832168,8.43101811 L17.092982,8.43101811 L19.3389931,7.46683651 C19.3487583,7.45709731 19.3585236,7.4473581 19.3585236,7.43761889 C19.3585236,7.42787968 19.3585236,7.41814047 19.3487583,7.40840127 L17.2492263,5.31447154 C17.239461,5.30473233 17.2296957,5.30473233 17.2296957,5.30473233 L17.2199305,5.30473233 C17.2101652,5.30473233 17.2003999,5.31447154 17.2003999,5.33394995 L16.7414325,8.16805949 C16.7511977,8.1777987 16.760963,8.19727712 16.7707283,8.19727712 Z M12.1126967,6.29813155 C12.2201146,6.46369809 12.2884715,6.65848225 12.308002,6.85326641 C12.308002,6.86300562 12.3177673,6.87274482 12.3275325,6.88248403 L15.6672533,8.31414761 L15.6770186,8.31414761 C15.6867838,8.31414761 15.6965491,8.31414761 15.6965491,8.3044084 C15.7942017,8.22649474 15.9113849,8.16805949 16.0383334,8.12910266 C16.0480986,8.12910266 16.0578639,8.11936345 16.0578639,8.09988504 L16.6047188,4.68142302 C16.6047188,4.67168381 16.6047188,4.6619446 16.5949535,4.65220539 L14.5051867,2.55827567 C14.4954214,2.54853646 14.4954214,2.54853646 14.4856562,2.54853646 C14.4758909,2.54853646 14.4661257,2.55827567 14.4661257,2.56801487 L12.1126967,6.24943551 C12.1029314,6.26891393 12.1029314,6.28839234 12.1126967,6.29813155 Z M23.5185266,11.5670431 L19.9346742,7.98301454 C19.924909,7.97327533 19.9151437,7.97327533 19.9151437,7.97327533 L19.9053784,7.97327533 L17.4738274,9.01537059 C17.4640621,9.0251098 17.4542968,9.03484901 17.4542968,9.04458821 C17.4542968,9.05432742 17.4640621,9.07380584 17.4738274,9.07380584 L23.4697003,11.6352176 L23.4794656,11.6352176 C23.4892308,11.6352176 23.4989961,11.6352176 23.4989961,11.6254783 L23.5185266,11.6059999 C23.5380571,11.6059999 23.5380571,11.5767823 23.5185266,11.5670431 Z M22.9228454,12.1513956 L17.1711042,9.69711515 L17.1613389,9.69711515 C17.1515736,9.69711515 17.1418084,9.69711515 17.1320431,9.70685436 C16.9757988,9.92111694 16.7414325,10.0574659 16.468005,10.0964227 C16.4582398,10.0964227 16.4387093,10.1061619 16.4387093,10.1256403 L15.8234975,13.9336706 C15.8234975,13.9434099 15.8234975,13.9531491 15.8332628,13.9628883 C16.0480986,14.1284548 16.1750471,14.371935 16.2043429,14.6446328 C16.2043429,14.6641112 16.2141081,14.6738505 16.2336387,14.6738505 L19.7100731,15.4042911 L19.7198384,15.4042911 C19.7296037,15.4042911 19.7393689,15.4042911 19.7393689,15.3945519 L22.9228454,12.2098308 C22.9326107,12.2000916 22.9326107,12.1903524 22.9326107,12.1806132 C22.9326107,12.170874 22.9326107,12.1611348 22.9228454,12.1513956 Z M15.3059385,8.89850009 L12.161523,7.55448939 L12.1517578,7.55448939 C12.1419925,7.55448939 12.1322272,7.56422859 12.122462,7.5739678 C11.9076261,7.90510087 11.5463113,8.09988504 11.1557007,8.09988504 C11.0971091,8.09988504 11.0385175,8.09014583 10.9701607,8.08040662 L10.9603954,8.08040662 C10.9506301,8.08040662 10.9408649,8.09014583 10.9310996,8.09988504 L8.34330429,12.1416564 C8.33353902,12.1513956 8.33353902,12.170874 8.34330429,12.1806132 C8.35306956,12.1903524 8.36283482,12.1903524 8.37260009,12.1903524 L8.38236535,12.1903524 L15.2864079,9.21989396 C15.2961732,9.21015475 15.3059385,9.20041554 15.3059385,9.19067634 L15.3059385,9.1517195 L15.3059385,9.10302346 C15.3059385,9.04458821 15.3157037,8.98615297 15.325469,8.93745693 C15.325469,8.91797851 15.3157037,8.9082393 15.3059385,8.89850009 Z M19.0948614,15.9691651 L16.0383334,15.3361166 L16.0285681,15.3361166 C16.0188028,15.3361166 16.0090376,15.3458558 15.9992723,15.3458558 C15.8820891,15.4919439 15.7356101,15.6088144 15.5598354,15.6769889 C15.5500701,15.6769889 15.5403048,15.6964673 15.5403048,15.7062065 L14.8079099,20.2446775 C14.8079099,20.2641559 14.8176752,20.2738951 14.8274405,20.2836343 L14.846971,20.2836343 C14.8567363,20.2836343 14.8665015,20.2836343 14.8665015,20.2738951 L19.1046267,16.0373396 C19.114392,16.0276004 19.114392,16.0178612 19.114392,16.008122 C19.114392,15.9789043 19.1046267,15.9691651 19.0948614,15.9691651 Z M14.8274405,15.6575105 C14.5344825,15.54064 14.3196467,15.2776814 14.2415246,14.9757659 C14.2415246,14.9660267 14.2317593,14.9562875 14.2122288,14.9465483 L8.54837486,13.7681041 C8.54837486,13.7681041 8.54837486,13.7681041 8.5386096,13.7681041 C8.52884433,13.7681041 8.51907907,13.7778433 8.5093138,13.7875825 C8.480018,13.8362786 8.46048747,13.8752354 8.43119168,13.9141922 C8.42142641,13.9239314 8.42142641,13.9434099 8.43119168,13.9531491 L13.5872518,21.4718177 C13.597017,21.4815569 13.597017,21.4815569 13.6067823,21.4815569 C13.6165476,21.4815569 13.6263128,21.4815569 13.6263128,21.4718177 L13.9388013,21.160163 C13.9388013,21.1504238 13.9485666,21.1504238 13.9485666,21.1406846 L14.8274405,15.6867281 C14.846971,15.6867281 14.846971,15.6672497 14.8274405,15.6575105 Z M8.66555805,13.0766203 C8.66555805,13.0960988 8.67532331,13.105838 8.69485384,13.105838 L14.3098814,14.2745429 L14.3196467,14.2745429 C14.3294119,14.2745429 14.3391772,14.2648037 14.3489425,14.2550645 C14.514952,13.9628883 14.8079099,13.7681041 15.139929,13.7486257 C15.1594595,13.7486257 15.1692248,13.7388865 15.1692248,13.7194081 L15.7746712,9.96981298 C15.7746712,9.96007377 15.7746712,9.94059535 15.7551407,9.94059535 C15.7160796,9.91137773 15.6770186,9.88216011 15.6281922,9.83346407 C15.618427,9.82372486 15.6086617,9.82372486 15.6086617,9.82372486 L15.5988964,9.82372486 L8.65579278,12.8136617 C8.63626225,12.8234009 8.63626225,12.8331401 8.63626225,12.8526186 C8.64602752,12.9305322 8.66555805,12.9987067 8.66555805,13.0766203 Z M6.3121291,14.0213235 C6.2828333,13.9823667 6.25353751,13.9434099 6.22424171,13.8947138 C6.21447645,13.8849746 6.20471118,13.8752354 6.19494592,13.8752354 L6.18518065,13.8752354 L3.76339485,14.9173307 C3.75362958,14.9173307 3.74386432,14.9270699 3.74386432,14.9368091 C3.74386432,14.9465483 3.74386432,14.9562875 3.75362958,14.9660267 L4.93522669,16.1444709 C4.94499195,16.1542101 4.95475722,16.1542101 4.95475722,16.1542101 C4.96452248,16.1542101 4.97428775,16.1444709 4.98405302,16.1347317 L6.32189437,14.0408019 C6.32189437,14.0408019 6.32189437,14.0310627 6.3121291,14.0213235 Z M7.91363262,14.4011526 C7.90386735,14.3914134 7.89410208,14.3816742 7.88433682,14.3816742 L7.87457155,14.3816742 C7.69879678,14.4595879 7.523022,14.4985447 7.33748196,14.4985447 C7.19100298,14.4985447 7.05428927,14.4790663 6.90781029,14.4303703 L6.89804502,14.4303703 C6.88827976,14.4303703 6.87851449,14.4401095 6.86874922,14.4498487 L5.46255102,16.6509097 L5.45278575,16.6606489 C5.44302049,16.6703881 5.44302049,16.6898665 5.45278575,16.6996057 L11.9173914,23.1567007 C11.9271567,23.1664399 11.9369219,23.1664399 11.9369219,23.1664399 C11.9466872,23.1664399 11.9564525,23.1664399 11.9564525,23.1567007 L13.0892232,22.0172133 C13.0989885,22.0074741 13.0989885,21.9879957 13.0892232,21.9782565 L7.91363262,14.4011526 Z M7.00546294,11.8592193 C7.0152282,11.8689585 7.02499347,11.8786978 7.03475874,11.8786978 L7.044524,11.8786978 C7.14217665,11.8592193 7.24959457,11.8397409 7.34724723,11.8397409 C7.45466514,11.8397409 7.57184833,11.8592193 7.67926625,11.888437 L7.68903151,11.888437 C7.69879678,11.888437 7.70856204,11.8786978 7.71832731,11.8689585 L10.3354184,7.77849117 C10.3451837,7.76875196 10.3451837,7.74927355 10.3354184,7.73953434 C10.1303478,7.52527176 10.0131647,7.24283473 10.0131647,6.94091928 C10.0131647,6.85326641 10.0229299,6.76561354 10.0424605,6.67796066 C10.0424605,6.65848225 10.0326952,6.64874304 10.0229299,6.63900383 C9.69091091,6.49291571 6.75156604,5.24629708 6.75156604,5.23655787 L6.74180078,5.23655787 C6.73203551,5.23655787 6.72227024,5.23655787 6.72227024,5.24629708 L4.23212758,7.73953434 C4.22236232,7.74927355 4.22236232,7.76875196 4.23212758,7.77849117 L7.00546294,11.8592193 Z M7.28865563,4.73011906 C7.28865563,4.73011906 10.2572963,5.9962161 10.3842447,6.05465135 L10.39401,6.05465135 C10.4037753,6.05465135 10.4037753,6.05465135 10.4135405,6.04491214 C10.6186111,5.8793456 10.8822733,5.78195352 11.1459354,5.78195352 C11.2728839,5.78195352 11.3998323,5.80143194 11.5267808,5.84038877 L11.5365461,5.84038877 C11.5463113,5.84038877 11.5560766,5.83064956 11.5658418,5.82091036 L13.9778624,2.05183685 C13.9876277,2.04209764 13.9876277,2.02261922 13.9778624,2.01288002 L11.975983,0.0163423691 C11.9662177,0.00660316108 11.9662177,0.00660316108 11.9564525,0.00660316108 C11.9466872,0.00660316108 11.9369219,0.00660316108 11.9369219,0.0163423691 L7.28865563,4.67168381 C7.27889037,4.68142302 7.27889037,4.69116222 7.27889037,4.70090143 C7.2691251,4.72037985 7.27889037,4.72037985 7.28865563,4.73011906 Z M6.13635432,12.5701815 C6.14611959,12.5701815 6.15588486,12.5604423 6.16565012,12.5507031 C6.22424171,12.4338326 6.3121291,12.3267013 6.40001649,12.2293092 C6.40978175,12.21957 6.40978175,12.2000916 6.40001649,12.1903524 C6.37072069,12.1513956 3.72433379,8.2946692 3.72433379,8.28492999 C3.71456852,8.27519078 3.71456852,8.27519078 3.69503799,8.26545157 C3.68527273,8.26545157 3.67550746,8.26545157 3.67550746,8.27519078 L0.589683615,11.3527805 C0.57991835,11.3625197 0.57991835,11.3722589 0.57991835,11.3819981 C0.57991835,11.3917374 0.589683615,11.4014766 0.609214146,11.4014766 L6.13635432,12.5701815 C6.12658906,12.5701815 6.12658906,12.5701815 6.13635432,12.5701815 Z M5.88245743,13.2421869 C5.88245743,13.2227085 5.87269216,13.2129693 5.85316163,13.2129693 L1.05841635,12.2098308 C1.05841635,12.2098308 1.05841635,12.2098308 1.04865109,12.2098308 C1.03888582,12.2098308 1.02912056,12.21957 1.01935529,12.2293092 C1.00959002,12.2390484 1.01935529,12.2585269 1.02912056,12.2682661 L3.16771366,14.4108918 C3.17747893,14.420631 3.18724419,14.420631 3.18724419,14.420631 L3.19700946,14.420631 L5.85316163,13.2811437 C5.87269216,13.2616653 5.88245743,13.2519261 5.88245743,13.2421869 Z" id="Combined-Shape" fill="url(#linearGradient-1)"></path>
            </g>
        </g>
    </g>
</svg>